# xmcd
#
# Track frame offsets:
#	150
#	23334
#	37518
#	51977
#	66300
#	84780
#	98156
#	103043
#	115962
#	131214
#	147234
#	160419
#	179679
#	192919
#
# Disc length: 2647 seconds
#
# Revision: 1
# Processed by: cddbd v1.4PL0 Copyright (c) Steve Scherf et al.
# Submitted via: audiograbber 1.81.03
#
DISCID=ba0a550e
DTITLE=Little Sue - The Long Goodbye
DYEAR=2002
DGENRE=
TTITLE0=Country Song
TTITLE1=I Can Wait
TTITLE2=Scary Places
TTITLE3=The Long Goodbye
TTITLE4=Blinded
TTITLE5=Somehow
TTITLE6=Song of Stillness
TTITLE7=Years
TTITLE8=Dysfunctional Love Song
TTITLE9=Gone
TTITLE10=Change Your Mind
TTITLE11=Tenderfoot
TTITLE12=Wing-Nut
TTITLE13=Song of Stillness Reprise
EXTD=
EXTT0=
EXTT1=
EXTT2=
EXTT3=
EXTT4=
EXTT5=
EXTT6=
EXTT7=
EXTT8=
EXTT9=
EXTT10=
EXTT11=
EXTT12=
EXTT13=
PLAYORDER=
